<?xml version="1.0" encoding="UTF-8" standalone="no"?>
<svg
   version="1.1"
   id="Layer_1"
   x="0px"
   y="0px"
   width="100%"
   viewBox="0 0 740 500"
   enable-background="new 0 0 740 500"
   xml:space="preserve"
   sodipodi:docname="back.svg"
   inkscape:version="1.1.2 (0a00cf5339, 2022-02-04)"
   xmlns:inkscape="http://www.inkscape.org/namespaces/inkscape"
   xmlns:sodipodi="http://sodipodi.sourceforge.net/DTD/sodipodi-0.dtd"
   xmlns="http://www.w3.org/2000/svg"
   xmlns:svg="http://www.w3.org/2000/svg"><defs
   id="defs101" /><sodipodi:namedview
   id="namedview99"
   pagecolor="#ffffff"
   bordercolor="#666666"
   borderopacity="1.0"
   inkscape:pageshadow="2"
   inkscape:pageopacity="0.0"
   inkscape:pagecheckerboard="0"
   showgrid="false"
   inkscape:zoom="2.304"
   inkscape:cx="370.00868"
   inkscape:cy="190.97222"
   inkscape:window-width="2560"
   inkscape:window-height="1403"
   inkscape:window-x="1080"
   inkscape:window-y="0"
   inkscape:window-maximized="1"
   inkscape:current-layer="Layer_1" />
<path
   fill="#ffffff"
   opacity="1"
   stroke="none"
   d="m 258.46386,-1.9335948 c 149.02408,1.00765325 298.04816,1.00765325 447.53339,1.46709475 -1.94263,38.54366205 0.76691,76.27945805 8.52509,113.60669005 2.10778,10.14116 5.2337,20.06745 7.90606,30.05858 0.0137,-0.0339 -0.0555,-0.012 -0.17993,0.34794 0.26557,1.52428 0.65552,2.6886 1.1673,4.22742 1.73822,8.70714 3.35455,17.03981 4.93249,25.83984 0.0521,1.80657 0.0491,3.15991 0.24652,4.4829 4.98475,33.40638 6.94019,67.05481 6.20704,100.76435 -0.56446,25.95287 -2.6424,51.87765 -4.30097,77.79847 -0.62982,9.84193 -1.96881,19.63782 -3.07056,29.85532 -1.42687,7.26077 -2.7677,14.12092 -4.34893,21.20051 -0.39008,1.30861 -0.53974,2.39781 -0.65729,3.48945 0.0322,0.002 0.0169,-0.0608 -0.33002,0.0899 -9.05157,30.0231 -13.72424,60.57973 -15.63019,90.59817 -149.02404,0 -298.04815,0 -447.52798,0 -0.0805,0 0.29474,0 0.91031,-4.5719 0.39007,-1.30893 0.53979,-2.39828 0.65729,-3.49013 -0.0322,-0.002 -0.0168,0.0607 0.3302,-0.0898 8.81686,-28.77519 13.39892,-58.11543 15.47952,-87.82663 2.76175,-39.43809 0.12921,-78.59532 -7.95236,-117.29986 -2.08576,-9.98914 -5.20395,-19.7594 -7.86151,-29.59643 -0.0136,0.0337 0.0555,0.012 0.17999,-0.34792 -0.26553,-1.52431 -0.65558,-2.6887 -1.16748,-4.22755 -1.73816,-8.70701 -3.35442,-17.03954 -4.93198,-25.83784 -0.0518,-1.80498 -0.0491,-3.15833 -0.24655,-4.48133 -4.98524,-33.40695 -6.9406,-67.05604 -6.20743,-100.76618 0.56447,-25.953392 2.64244,-51.878629 4.30103,-77.799907 0.62976,-9.842144 1.96879,-19.638206 3.07046,-29.855696 1.04608,-5.8095507 2.00629,-11.2186746 2.96649,-17.6354517 z"
   id="path72"
   style="stroke-width:1.00382" />
<path
   opacity="0.000000"
   stroke="none"
   d=" M259.141998,495.680725  C258.766754,500.000000 258.391510,500.000000 258.008118,500.000000  C172.370300,500.000000 86.740601,500.000000 1.055453,500.000000  C1.055453,334.442230 1.055453,167.884460 1.055453,1.000000  C86.353951,1.000000 171.708313,1.000000 257.531342,0  C257.039795,6.368041 256.079590,11.736082 254.698547,17.711771  C251.169403,35.464172 247.651871,52.547947 245.084976,69.773384  C243.105759,83.055222 241.697433,96.491028 241.182693,109.902412  C240.688126,122.787842 241.105957,135.774933 242.135361,148.636307  C243.611115,167.073990 245.672577,185.483276 248.155930,203.813644  C249.319489,212.402145 252.054489,220.777740 254.077286,229.249832  C255.693558,237.519073 257.309814,245.788315 258.965332,254.821625  C259.366730,256.717743 259.728851,257.849792 260.090942,258.981842  C260.090942,258.981842 260.021851,259.003448 260.013184,259.412262  C260.336975,262.416443 260.688416,265.009583 260.998627,267.607605  C262.358063,278.992828 263.915863,290.359406 265.006622,301.770508  C266.524078,317.646027 268.394867,333.534851 268.855713,349.454407  C269.791382,381.774597 268.934998,414.093475 265.955017,446.315582  C265.323486,453.143982 264.037170,459.909698 263.152161,466.717255  C262.054871,475.157593 261.061249,483.611450 260.022827,492.059448  C260.022827,492.059448 260.007446,491.996735 259.696472,492.111877  C259.304321,493.378265 259.223175,494.529510 259.141998,495.680725 z"
   id="path74" />
<path
   opacity="0.000000"
   stroke="none"
   d=" M727.922791,173.750427  C726.306458,165.481064 724.690125,157.211685 723.034485,148.178284  C722.633118,146.282211 722.271057,145.150208 721.909058,144.018188  C721.909058,144.018173 721.978271,143.996506 721.986816,143.587723  C720.314453,129.240173 718.406860,115.324028 717.012695,101.356644  C715.433655,85.536308 713.746948,69.691467 713.147949,53.818005  C712.484497,36.235172 712.998657,18.607912 713.000000,1.000000  C722.318054,1.000000 731.636169,1.000000 741.000000,1.000000  C741.000000,80.687553 741.000000,160.375122 740.584351,240.701828  C739.786255,240.667526 739.151245,240.026978 739.058655,239.315781  C737.333008,226.070602 736.004517,212.763382 733.879578,199.584152  C732.475952,190.879059 729.947571,182.355347 727.922791,173.750427 z"
   id="path76" />
<path
   opacity="0.000000"
   stroke="none"
   d=" M722.857849,406.320007  C724.198730,399.511963 725.539551,392.703918 727.301392,385.287994  C729.146057,378.343292 730.951416,372.064087 731.919617,365.658386  C734.478271,348.730255 736.654297,331.744446 739.086304,314.796509  C739.183350,314.120056 740.338074,313.595398 741.000000,313.000000  C741.000000,375.666687 741.000000,438.333374 741.000000,500.000000  C731.900757,500.000000 722.919067,500.000000 713.466919,500.000000  C713.999756,485.064270 714.867737,470.001709 716.069275,454.965790  C716.586914,448.488007 717.829651,442.069916 718.681885,435.616638  C719.811523,427.062042 720.881470,418.499542 721.977112,409.940460  C721.977112,409.940460 721.992432,410.003143 722.303345,409.888000  C722.695435,408.621918 722.776611,407.470947 722.857849,406.320007 z"
   id="path78" />
<path
   fill="#9BCD05"
   opacity="1.000000"
   stroke="none"
   d=" M741.000000,312.531342  C740.338074,313.595398 739.183350,314.120056 739.086304,314.796509  C736.654297,331.744446 734.478271,348.730255 731.919617,365.658386  C730.951416,372.064087 729.146057,378.343292 727.387329,384.890442  C728.068176,375.358398 729.407166,365.636902 730.036987,355.869720  C731.695557,330.145782 733.773499,304.417908 734.337952,278.662140  C735.071106,245.208633 733.115662,211.815765 728.130920,178.663116  C727.933472,177.350174 727.936462,176.007111 727.884399,174.214264  C729.947571,182.355347 732.475952,190.879059 733.879578,199.584152  C736.004517,212.763382 737.333008,226.070602 739.058655,239.315781  C739.151245,240.026978 739.786255,240.667526 740.584351,241.170486  C741.000000,264.687561 741.000000,288.375122 741.000000,312.531342 z"
   id="path80" />
<path
   fill="#9bcd05"
   opacity="1"
   stroke="none"
   d="m 712.5625,-0.93979621 c 0.43616,17.84739821 -0.078,35.71440621 0.58545,53.53638421 0.599,16.089357 2.28571,32.149705 3.86474,48.185212 1.39417,14.15736 3.30176,28.26278 4.96033,42.83948 -2.68084,-9.63576 -5.80676,-19.62064 -7.91455,-29.82166 -7.75818,-37.547556 -10.46771,-75.506092 -8.06122,-114.27726279 2.04444,-0.46215342 4.08606,-0.46215342 6.56525,-0.46215342 z"
   id="path82"
   style="stroke-width:1.00678" />
<path
   fill="#9BCD05"
   opacity="1.000000"
   stroke="none"
   d=" M721.630188,410.089935  C720.881470,418.499542 719.811523,427.062042 718.681885,435.616638  C717.829651,442.069916 716.586914,448.488007 716.069275,454.965790  C714.867737,470.001709 713.999756,485.064270 712.998291,500.000000  C710.958313,500.000000 708.916687,500.000000 706.437500,500.000000  C707.905945,470.209564 712.578613,439.885010 721.630188,410.089935 z"
   id="path84" />
<path
   fill="#9BCD05"
   opacity="1.000000"
   stroke="none"
   d=" M260.369843,491.910095  C261.061249,483.611450 262.054871,475.157593 263.152161,466.717255  C264.037170,459.909698 265.323486,453.143982 265.955017,446.315582  C268.934998,414.093475 269.791382,381.774597 268.855713,349.454407  C268.394867,333.534851 266.524078,317.646027 265.006622,301.770508  C263.915863,290.359406 262.358063,278.992828 260.998627,267.607605  C260.688416,265.009583 260.336975,262.416443 260.026794,259.378723  C262.693024,268.732239 265.811218,278.428284 267.896973,288.341553  C275.978546,326.752136 278.611084,365.611969 275.849335,404.750519  C273.768738,434.236053 269.186676,463.353455 260.369843,491.910095 z"
   id="path86" />
<path
   fill="#9BCD05"
   opacity="1.000000"
   stroke="none"
   d=" M254.115997,228.787598  C252.054489,220.777740 249.319489,212.402145 248.155930,203.813644  C245.672577,185.483276 243.611115,167.073990 242.135361,148.636307  C241.105957,135.774933 240.688126,122.787842 241.182693,109.902412  C241.697433,96.491028 243.105759,83.055222 245.084976,69.773384  C247.651871,52.547947 251.169403,35.464172 254.612640,18.109156  C253.931839,27.641396 252.592804,37.363056 251.963043,47.130447  C250.304459,72.854851 248.226486,98.583183 247.662018,124.339455  C246.928848,157.793564 248.884201,191.187088 253.869446,224.340302  C254.066864,225.653259 254.064163,226.996323 254.115997,228.787598 z"
   id="path88" />
<path
   fill="#9BCD05"
   opacity="1.000000"
   stroke="none"
   d=" M721.784546,144.375381  C722.271057,145.150208 722.633118,146.282211 722.912598,147.806641  C722.440125,147.043549 722.050171,145.888062 721.784546,144.375381 z"
   id="path90" />
<path
   fill="#9BCD05"
   opacity="1.000000"
   stroke="none"
   d=" M260.215454,258.624634  C259.728851,257.849792 259.366730,256.717743 259.087219,255.193268  C259.559875,255.956360 259.949921,257.111908 260.215454,258.624634 z"
   id="path92" />
<path
   fill="#9BCD05"
   opacity="1.000000"
   stroke="none"
   d=" M722.617432,406.537781  C722.776611,407.470947 722.695435,408.621918 722.271118,409.885590  C722.077759,408.917389 722.227417,407.836456 722.617432,406.537781 z"
   id="path94" />
<path
   fill="#9BCD05"
   opacity="1.000000"
   stroke="none"
   d=" M259.382324,495.462830  C259.223175,494.529510 259.304321,493.378265 259.728638,492.114349  C259.922119,493.082764 259.772400,494.163849 259.382324,495.462830 z"
   id="path96" />
</svg>
