<?xml version="1.0" encoding="UTF-8" standalone="no"?>
<svg version="1.1" id="Layer_1" x="0px" y="0px" width="100%" viewBox="0 0 526 500" enable-background="new 0 0 526 500" xml:space="preserve" sodipodi:docname="bg.svg" inkscape:version="1.1.2 (0a00cf5339, 2022-02-04)" xmlns:inkscape="http://www.inkscape.org/namespaces/inkscape" xmlns:sodipodi="http://sodipodi.sourceforge.net/DTD/sodipodi-0.dtd" xmlns="http://www.w3.org/2000/svg" xmlns:svg="http://www.w3.org/2000/svg">
  <defs id="defs77" />
  <sodipodi:namedview id="namedview75" pagecolor="#ffffff" bordercolor="#666666" borderopacity="1.0" inkscape:pageshadow="2" inkscape:pageopacity="0.0" inkscape:pagecheckerboard="0" showgrid="false" inkscape:zoom="2.304" inkscape:cx="266.71007" inkscape:cy="151.47569" inkscape:window-width="2560" inkscape:window-height="1403" inkscape:window-x="1080" inkscape:window-y="0" inkscape:window-maximized="1" inkscape:current-layer="Layer_1" />
  <path fill="#ffffff" opacity="0.900000" stroke="none" d="m 492,501.12519 c -149.02408,0 -298.04816,0 -447.530697,-0.40593 0.260029,-3.1403 0.978527,-5.87474 1.999668,-8.81177 8.739849,-28.8083 13.320969,-58.11317 15.400109,-87.7974 2.866722,-40.92879 -0.249443,-81.48709 -8.970444,-121.56458 -1.808323,-8.31019 -4.591766,-16.4062 -6.889259,-24.59154 0.03653,0.01 0.03651,0.0852 0.196815,-0.23145 -0.239025,-1.54939 -0.638344,-2.78222 -1.32346,-4.36575 -1.81961,-8.6777 -3.353424,-17.00472 -4.81615,-25.78164 -0.290592,-3.26042 -0.790657,-6.06091 -0.992371,-8.88293 -1.843998,-25.79785 -4.321255,-51.5741 -5.269054,-77.40644 -1.170624,-31.90545 0.426449,-63.788097 3.979065,-95.551017 0.959827,-8.581557 1.384658,-17.2235 2.127407,-26.248464 C 41.322651,12.318359 42.661324,5.5611794 44,-1.196 c 149.02408,0 298.04816,0 447.53336,0.45457579 -2.05069,40.14256721 1.07174,79.40984921 9.52746,118.22877421 1.841,8.45165 4.61957,16.69718 6.92981,25.02831 -0.0365,-0.01 -0.0365,-0.0851 -0.19739,0.23053 0.24018,1.54255 0.64121,2.76949 1.103,4.44807 1.66055,8.82764 3.26032,17.20362 4.90576,26.01048 2.17059,27.74718 5.09497,55.02988 6.2345,82.38761 1.74225,41.82606 -1.0697,83.51445 -6.94837,125.40719 -0.66143,4.29316 -1.14715,8.17891 -1.86383,12.02115 -1.04287,5.59109 -2.25216,11.15081 -3.6986,16.91181 -8.9498,29.92039 -13.64213,60.31953 -15.5257,91.19269 z" id="path52" style="stroke-width:1.00232" />
  <path opacity="0.000000" stroke="none" d=" M43.531342,1.000000  C42.661324,7.725955 41.322651,14.451910 39.572109,21.785273  C37.423485,31.610060 35.264076,40.771599 34.037407,50.056370  C31.433544,69.765213 28.647512,89.490623 27.235353,109.301842  C26.310667,122.274277 27.095989,135.454193 28.131836,148.460220  C29.594603,166.826584 31.671526,185.162064 34.139229,203.422470  C35.312908,212.107452 37.996109,220.588440 39.995499,229.161835  C41.529308,237.450363 43.063122,245.738892 44.820545,254.709961  C45.378067,256.607422 45.711979,257.822296 46.045891,259.037201  C46.045891,259.037201 46.045910,258.961792 46.022690,259.395691  C45.999905,260.829041 45.886707,261.843597 46.017670,262.825592  C48.322647,280.109100 50.981236,297.353333 52.872284,314.681458  C54.139542,326.293671 54.694023,338.016876 54.911739,349.702637  C55.240562,367.352509 55.518566,385.032684 54.851986,402.663452  C54.175953,420.544281 52.459473,438.392212 50.921471,456.230652  C50.363838,462.698334 48.915985,469.084869 48.038368,475.530762  C47.291981,481.012726 46.781288,486.526733 46.166325,492.026581  C45.447830,494.748352 44.729332,497.470154 44.005417,500.595947  C29.677374,501.000000 15.354748,501.000000 1.039559,501.000000  C1.046996,334.333313 1.046996,167.666656 1.046996,1.000000  C15.083555,1.000000 29.073120,1.000000 43.531342,1.000000 z" id="path54" />
  <path opacity="0.000000" stroke="none" d=" M513.756348,174.165970  C512.156555,165.828690 510.556793,157.491409 508.957153,148.372223  C508.622925,146.381149 508.288544,145.172012 507.954102,143.962875  C507.954102,143.962875 507.954102,144.038269 507.977295,143.604309  C507.014404,136.752151 505.784088,130.360245 505.089630,123.910652  C503.269104,107.003334 501.408600,90.091980 500.100128,73.140854  C499.248505,62.108292 499.185364,51.005215 499.041626,39.930183  C498.873230,26.955462 499.000793,13.976898 499.000000,1.000000  C508.318939,1.000000 517.637878,1.000000 527.000000,1.000000  C527.000000,86.020889 527.000000,171.041794 526.602600,256.347290  C525.797791,248.590439 525.918518,240.479248 524.868286,232.522629  C522.942932,217.936874 520.479736,203.415222 517.914307,188.924652  C517.027710,183.916672 515.170288,179.080582 513.756348,174.165970 z" id="path56" />
  <path opacity="0.000000" stroke="none" d=" M507.833801,410.041687  C508.972137,404.494324 510.181427,398.960297 511.224304,393.395050  C511.940979,389.570557 512.426697,385.702759 513.485718,381.413513  C514.299072,380.508179 514.854248,380.084991 514.954163,379.572937  C516.686768,370.693054 518.778503,361.857178 519.963806,352.902130  C522.250732,335.624451 524.007080,318.276764 526.025391,300.962982  C526.181702,299.622314 526.667358,298.320099 527.000000,297.000000  C527.000000,365.000031 527.000000,433.000031 527.000000,501.000000  C517.903320,501.000000 508.920319,501.000000 499.469727,500.557251  C499.002533,499.284058 498.947693,498.449310 499.011444,497.623749  C500.334808,480.489594 501.553528,463.346039 503.067505,446.228638  C503.623901,439.938141 504.961365,433.720215 505.801422,427.450287  C506.577118,421.660583 507.163818,415.845551 507.833801,410.041687 z" id="path58" />
  <path fill="#9BCD05" opacity="1.000000" stroke="none" d=" M527.000000,296.531342  C526.667358,298.320099 526.181702,299.622314 526.025391,300.962982  C524.007080,318.276764 522.250732,335.624451 519.963806,352.902130  C518.778503,361.857178 516.686768,370.693054 514.954163,379.572937  C514.854248,380.084991 514.299072,380.508179 513.558228,380.988617  C518.966797,339.730286 521.778748,298.234528 520.036499,256.601746  C518.896973,229.370438 515.972595,202.213806 513.802002,174.594849  C515.170288,179.080582 517.027710,183.916672 517.914307,188.924652  C520.479736,203.415222 522.942932,217.936874 524.868286,232.522629  C525.918518,240.479248 525.797791,248.590439 526.602600,256.815979  C527.000000,270.020905 527.000000,283.041779 527.000000,296.531342 z" id="path60" />
  <path fill="#9bcd05" opacity="1" stroke="none" d="m 498.5625,-1.5622991 c 0.43829,13.2100501 0.31073,26.4217961 0.47913,39.6296311 0.14373,11.274013 0.20688,22.576576 1.0585,33.807357 1.30847,17.255683 3.16897,34.470881 4.9895,51.681971 0.69446,6.56547 1.92477,13.07221 2.92422,20.05696 -2.33346,-7.99987 -5.11203,-16.35475 -6.95303,-24.91849 -8.45572,-39.333781 -11.57815,-79.121856 -9.06357,-119.7968246 2.04441,-0.4606045 4.08609,-0.4606045 6.56525,-0.4606045 z" id="path62" style="stroke-width:1.00894" />
  <path fill="#9BCD05" opacity="1.000000" stroke="none" d=" M507.525726,410.228699  C507.163818,415.845551 506.577118,421.660583 505.801422,427.450287  C504.961365,433.720215 503.623901,439.938141 503.067505,446.228638  C501.553528,463.346039 500.334808,480.489594 499.011444,497.623749  C498.947693,498.449310 499.002533,499.284058 499.001099,500.557251  C496.958344,501.000000 494.916656,501.000000 492.437500,501.000000  C493.883575,470.269501 498.575897,440.010834 507.525726,410.228699 z" id="path64" />
  <path fill="#9BCD05" opacity="1.000000" stroke="none" d=" M46.468964,491.824890  C46.781288,486.526733 47.291981,481.012726 48.038368,475.530762  C48.915985,469.084869 50.363838,462.698334 50.921471,456.230652  C52.459473,438.392212 54.175953,420.544281 54.851986,402.663452  C55.518566,385.032684 55.240562,367.352509 54.911739,349.702637  C54.694023,338.016876 54.139542,326.293671 52.872284,314.681458  C50.981236,297.353333 48.322647,280.109100 46.017670,262.825592  C45.886707,261.843597 45.999905,260.829041 45.986153,259.386353  C48.306870,267.099976 51.090313,275.158569 52.898636,283.430359  C61.619637,323.322662 64.735802,363.693542 61.869080,404.433197  C59.789940,433.980255 55.208820,463.149719 46.468964,491.824890 z" id="path66" />
  <path fill="#9BCD05" opacity="1.000000" stroke="none" d=" M40.066586,228.713989  C37.996109,220.588440 35.312908,212.107452 34.139229,203.422470  C31.671526,185.162064 29.594603,166.826584 28.131836,148.460220  C27.095989,135.454193 26.310667,122.274277 27.235353,109.301842  C28.647512,89.490623 31.433544,69.765213 34.037407,50.056370  C35.264076,40.771599 37.423485,31.610060 39.499756,22.194115  C39.168880,30.569967 38.744049,39.171978 37.784222,47.713879  C34.231606,79.330025 32.634533,111.065346 33.805157,142.823364  C34.752956,168.536331 37.230213,194.193466 39.074211,219.872116  C39.275925,222.681091 39.775990,225.468643 40.066586,228.713989 z" id="path68" />
  <path fill="#9BCD05" opacity="1.000000" stroke="none" d=" M507.793274,144.277039  C508.288544,145.172012 508.622925,146.381149 508.896393,147.922653  C508.434448,147.033737 508.033417,145.812469 507.793274,144.277039 z" id="path70" />
  <path fill="#9BCD05" opacity="1.000000" stroke="none" d=" M46.206192,258.722076  C45.711979,257.822296 45.378067,256.607422 45.106342,255.059052  C45.567848,255.952713 45.967167,257.179840 46.206192,258.722076 z" id="path72" />
</svg>