<svg version="1.1" id="Layer_1" xmlns="http://www.w3.org/2000/svg" xmlns:xlink="http://www.w3.org/1999/xlink" x="0px" y="0px"
	 width="100%" viewBox="0 0 360 60" enable-background="new 0 0 360 60" xml:space="preserve">
<path fill="#FF9900" opacity="1.000000" stroke="none"
	d="
M321.000000,0.999999
	C325.356903,1.000000 329.713806,1.000000 334.533691,1.456303
	C334.339813,9.221849 333.682953,16.531094 332.771698,23.925831
	C332.346588,24.064833 332.175842,24.118343 331.581543,24.107710
	C321.104065,24.640104 311.050171,25.236645 300.653809,25.630081
	C296.875671,25.562483 293.439972,25.697989 289.562439,25.906796
	C282.055542,26.320063 274.988892,26.630375 267.925751,27.006855
	C256.948120,27.591984 245.972855,28.222130 234.654099,28.630119
	C230.875916,28.562521 227.440216,28.698002 223.565186,28.906752
	C218.748734,29.264376 214.371628,29.548731 209.672394,29.637562
	C206.894745,29.569395 204.439224,29.696751 201.739883,29.885422
	C201.333099,29.907528 201.170151,29.868320 200.897614,29.731590
	C200.486313,29.514496 200.229523,29.582546 199.590302,29.910353
	C189.107513,30.599392 179.052048,31.216295 168.654099,31.630121
	C164.875916,31.562525 161.440216,31.698006 157.562714,31.906788
	C150.055771,32.320061 142.989044,32.630367 135.925858,33.006847
	C124.948120,33.591980 113.972778,34.222126 102.653961,34.630100
	C98.875839,34.562504 95.440186,34.697994 91.562714,34.906792
	C72.080116,36.042782 53.039333,37.105476 33.742260,38.085800
	C33.315147,37.948364 33.144325,37.893295 32.985989,37.425430
	C33.676273,31.258266 34.147030,25.466391 35.177986,19.776005
	C35.434551,18.359909 37.387432,16.362326 38.755627,16.191206
	C44.499935,15.472772 50.314342,15.229233 56.110554,15.035663
	C61.762058,14.846925 67.434227,15.150277 73.077087,14.853175
	C89.128700,14.008040 105.167831,12.928176 121.216873,12.030131
	C125.199043,11.807304 129.210556,12.094490 133.190735,11.852992
	C147.742966,10.970033 162.282852,9.878844 176.837723,9.046581
	C182.146088,8.743042 187.493561,9.146605 192.805481,8.877746
	C210.020416,8.006427 227.225174,6.935572 244.437897,6.018004
	C252.720901,5.576459 261.024170,5.467791 269.296814,4.897488
	C274.218170,4.558221 279.097839,3.614829 284.332275,3.100825
	C287.115723,3.134976 289.563141,3.011343 292.476196,2.907657
	C297.948090,2.893873 302.954346,2.860143 308.403778,2.868748
	C311.205750,2.905047 313.564545,2.899010 316.295349,2.916607
	C318.111572,2.293493 319.555786,1.646745 321.000000,0.999999
z"/>
<path fill="#5233FF" opacity="1.000000" stroke="none"
	d="
M201.007217,29.829115
	C201.170151,29.868320 201.333099,29.907528 202.180786,29.962015
	C205.241837,29.929226 207.618164,29.881155 209.994507,29.833084
	C214.371628,29.548731 218.748734,29.264376 224.018082,28.979265
	C228.272400,28.930071 231.634506,28.881634 234.996597,28.833195
	C245.972855,28.222130 256.948120,27.591984 267.925751,27.006855
	C274.988892,26.630375 282.055542,26.320063 290.015381,25.979301
	C294.272156,25.930069 297.634186,25.881628 300.996246,25.833187
	C311.050171,25.236645 321.104065,24.640104 331.579376,24.556732
	C331.664246,30.998547 331.500671,36.946480 330.843353,42.839348
	C330.713898,44.000069 328.729218,45.798878 327.518066,45.868114
	C306.905975,47.046463 286.280487,47.989052 265.659027,49.005783
	C259.726746,49.298271 253.799606,49.695721 247.867157,49.984333
	C226.912613,51.003769 205.954544,51.952515 185.002380,53.018066
	C173.969955,53.579140 162.951675,54.419724 151.918823,54.970451
	C130.467148,56.041267 109.013565,57.091057 87.553246,57.964710
	C74.634621,58.490631 61.697510,58.561493 48.778610,59.082485
	C45.831421,59.201336 42.925121,60.333965 40.000000,61.000000
	C37.299988,61.000000 34.599972,61.000000 31.590273,60.614357
	C32.186577,52.875195 33.092564,45.521683 33.998554,38.168167
	C53.039333,37.105476 72.080116,36.042782 92.015602,34.979301
	C96.272346,34.930073 99.634384,34.881630 102.996422,34.833191
	C113.972778,34.222126 124.948120,33.591980 135.925858,33.006847
	C142.989044,32.630367 150.055771,32.320061 158.015610,31.979301
	C162.272400,31.930071 165.634506,31.881634 168.996597,31.833197
	C179.052048,31.216295 189.107513,30.599392 199.838196,29.973358
	C200.678040,29.919189 200.842621,29.874153 201.007217,29.829115
z"/>
<path opacity="0.000000" stroke="none"
	d="
M40.468658,61.000000
	C42.925121,60.333965 45.831421,59.201336 48.778610,59.082485
	C61.697510,58.561493 74.634621,58.490631 87.553246,57.964710
	C109.013565,57.091057 130.467148,56.041267 151.918823,54.970451
	C162.951675,54.419724 173.969955,53.579140 185.002380,53.018066
	C205.954544,51.952515 226.912613,51.003769 247.867157,49.984333
	C253.799606,49.695721 259.726746,49.298271 265.659027,49.005783
	C286.280487,47.989052 306.905975,47.046463 327.518066,45.868114
	C328.729218,45.798878 330.713898,44.000069 330.843353,42.839348
	C331.500671,36.946480 331.664246,30.998547 332.002930,24.620880
	C332.175842,24.118343 332.346588,24.064833 333.220337,23.987658
	C344.477295,24.083841 355.181000,24.573542 361.000000,13.000000
	C361.000000,28.981014 361.000000,44.962029 361.000000,61.000000
	C254.312439,61.000000 147.624878,61.000000 40.468658,61.000000
z"/>
<path fill="#FFCC00" opacity="1.000000" stroke="none"
	d="
M283.996246,2.943041
	C279.097839,3.614829 274.218170,4.558221 269.296814,4.897488
	C261.024170,5.467791 252.720901,5.576459 244.437897,6.018004
	C227.225174,6.935572 210.020416,8.006427 192.805481,8.877746
	C187.493561,9.146605 182.146088,8.743042 176.837723,9.046581
	C162.282852,9.878844 147.742966,10.970033 133.190735,11.852992
	C129.210556,12.094490 125.199043,11.807304 121.216873,12.030131
	C105.167831,12.928176 89.128700,14.008040 73.077087,14.853175
	C67.434227,15.150277 61.762058,14.846925 56.110554,15.035663
	C50.314342,15.229233 44.499935,15.472772 38.755627,16.191206
	C37.387432,16.362326 35.434551,18.359909 35.177986,19.776005
	C34.147030,25.466391 33.676273,31.258266 32.525261,37.491386
	C27.025539,38.265656 21.972267,39.030109 16.978867,38.745209
	C9.746393,38.332546 4.345662,34.529701 1.000000,28.000000
	C1.000000,19.012716 1.000000,10.025434 1.000000,1.000000
	C95.020889,1.000000 189.041794,1.000000 283.531036,1.324156
	C283.998352,2.079888 283.997284,2.511464 283.996246,2.943041
z"/>
<path opacity="0.000000" stroke="none"
	d="
M1.000000,28.468658
	C4.345662,34.529701 9.746393,38.332546 16.978867,38.745209
	C21.972267,39.030109 27.025539,38.265656 32.512779,37.904186
	C33.144325,37.893295 33.315147,37.948364 33.742260,38.085800
	C33.092564,45.521683 32.186577,52.875195 31.140293,60.614357
	C21.069971,61.000000 11.139941,61.000000 1.000000,61.000000
	C1.000000,50.313354 1.000000,39.625336 1.000000,28.468658
z"/>
<path fill="#FFCC00" opacity="1.000000" stroke="none"
	d="
M361.000000,12.520824
	C355.181000,24.573542 344.477295,24.083841 333.474731,23.902164
	C333.682953,16.531094 334.339813,9.221849 334.998322,1.456303
	C343.560730,1.000000 352.121490,1.000000 361.000000,1.000000
	C361.000000,4.674453 361.000000,8.358051 361.000000,12.520824
z"/>
<path fill="#FFCC00" opacity="1.000000" stroke="none"
	d="
M307.960571,2.826412
	C302.954346,2.860143 297.948090,2.893873 292.473419,2.594344
	C292.003326,1.840723 292.001678,1.420361 292.000000,1.000000
	C297.022095,1.000000 302.044189,1.000000 307.529449,1.305511
	C307.981934,2.016151 307.971252,2.421281 307.960571,2.826412
z"/>
<path fill="#FFC800" opacity="1.000000" stroke="none"
	d="
M291.555847,1.000000
	C292.001678,1.420361 292.003326,1.840723 292.007751,2.574397
	C289.563141,3.011343 287.115723,3.134976 284.332275,3.100824
	C283.997284,2.511464 283.998352,2.079888 283.999695,1.324156
	C286.370575,1.000000 288.741119,1.000000 291.555847,1.000000
z"/>
<path fill="#FFC200" opacity="1.000000" stroke="none"
	d="
M308.403748,2.868748
	C307.971252,2.421281 307.981934,2.016151 307.996307,1.305511
	C310.041656,1.000000 312.083344,1.000000 314.674713,1.239890
	C315.457367,1.950846 315.690338,2.421911 315.923309,2.892976
	C313.564545,2.899010 311.205750,2.905047 308.403748,2.868748
z"/>
<path fill="#FFB700" opacity="1.000000" stroke="none"
	d="
M316.295349,2.916609
	C315.690338,2.421911 315.457367,1.950846 315.112213,1.239890
	C316.714355,1.000000 318.428711,1.000000 320.571533,0.999999
	C319.555786,1.646745 318.111572,2.293493 316.295349,2.916609
z"/>
<path fill="#EA7F00" opacity="1.000000" stroke="none"
	d="
M300.653809,25.630081
	C297.634186,25.881628 294.272156,25.930069 290.457153,25.906002
	C293.439972,25.697989 296.875671,25.562483 300.653809,25.630081
z"/>
<path fill="#EA7F00" opacity="1.000000" stroke="none"
	d="
M234.654099,28.630117
	C231.634506,28.881634 228.272400,28.930071 224.457428,28.905996
	C227.440216,28.698002 230.875916,28.562521 234.654099,28.630117
z"/>
<path fill="#EA7F00" opacity="1.000000" stroke="none"
	d="
M168.654099,31.630119
	C165.634506,31.881634 162.272400,31.930071 158.457428,31.905998
	C161.440216,31.698006 164.875916,31.562525 168.654099,31.630119
z"/>
<path fill="#EA7F00" opacity="1.000000" stroke="none"
	d="
M102.653961,34.630096
	C99.634384,34.881630 96.272346,34.930073 92.457420,34.905998
	C95.440186,34.697994 98.875839,34.562504 102.653961,34.630096
z"/>
<path fill="#EF8500" opacity="1.000000" stroke="none"
	d="
M209.672394,29.637562
	C207.618164,29.881155 205.241837,29.929226 202.424591,29.900703
	C204.439224,29.696751 206.894745,29.569395 209.672394,29.637562
z"/>
<path fill="#EF8500" opacity="1.000000" stroke="none"
	d="
M200.897614,29.731590
	C200.842621,29.874153 200.678040,29.919189 200.265533,29.901222
	C200.229523,29.582546 200.486313,29.514496 200.897614,29.731590
z"/>
</svg>