<svg version="1.1" id="Layer_1" xmlns="http://www.w3.org/2000/svg" xmlns:xlink="http://www.w3.org/1999/xlink" x="0px" y="0px" preserveAspectRatio="xMidYMid meet"
	 width="100%" viewBox="0 0 500 335" enable-background="new 0 0 500 335" xml:space="preserve">
<path opacity="0.000000" stroke="none"
	d="
M308.000000,336.000000
	C205.333344,336.000000 103.166695,336.000000 1.000027,336.000000
	C1.000018,224.333359 1.000018,112.666718 1.000009,1.000057
	C167.666626,1.000038 334.333252,1.000038 500.999908,1.000019
	C500.999939,112.666603 500.999939,224.333206 500.999969,335.999908
	C436.833344,336.000000 372.666656,336.000000 308.000000,336.000000
M466.075958,86.173698
	C466.049438,69.853119 466.014191,53.532547 466.011078,37.211967
	C466.010773,35.728882 465.883423,34.120163 466.386444,32.785072
	C468.244781,27.853065 467.171417,26.293447 461.893585,25.973049
	C446.787445,25.056011 431.710510,25.894575 416.496918,24.542229
	C392.717865,22.428503 368.632843,24.472374 344.705414,22.117275
	C327.499115,20.423719 310.228973,22.708342 292.818176,20.438063
	C272.117645,17.738819 251.007935,21.013975 230.001633,18.297579
	C210.417007,15.765024 190.538589,18.097324 170.661285,16.532412
	C137.710403,13.938236 104.497353,14.671687 71.394348,14.023560
	C70.442467,14.004922 69.486099,14.215001 68.920349,14.276324
	C67.896072,19.578926 66.222939,24.454872 66.140305,29.357626
	C65.859772,46.002617 66.141327,62.657082 66.028252,79.654449
	C65.813370,79.799706 65.620758,79.970131 64.514488,80.055565
	C61.548119,80.706795 58.330276,80.835236 55.666897,82.116371
	C49.838543,84.919891 45.604759,89.753242 44.178211,95.977707
	C42.960762,101.289795 44.097481,106.829201 42.305202,112.447029
	C40.322754,118.660950 42.533566,125.557945 40.334755,132.369476
	C38.295372,138.687103 40.541260,145.849640 38.265354,152.760849
	C36.274254,158.807190 38.507484,165.526794 36.365555,172.202240
	C34.293434,178.660095 36.545219,186.028717 34.235455,193.074310
	C32.296440,198.988983 34.358047,205.491257 32.428604,212.034927
	C30.425932,218.826981 32.260483,226.554245 30.179136,233.871536
	C28.555349,239.580231 30.011749,245.653244 28.429630,251.841064
	C26.115877,260.890381 26.758528,270.680237 25.954252,280.138580
	C25.641880,283.812103 26.051256,287.313324 24.456123,291.228119
	C22.754177,295.405060 23.411608,301.212189 24.788685,305.780212
	C26.075413,310.048523 28.545858,314.525879 33.609550,316.325348
	C36.481258,317.345825 39.250240,319.886108 41.999561,319.793121
	C50.807465,319.495178 59.516029,320.075165 68.497040,318.443726
	C82.652481,315.872253 97.315376,319.027924 111.880020,316.308685
	C125.226173,313.816925 139.026337,317.000153 152.797119,314.356323
	C166.604584,311.705444 180.942032,315.075256 195.200104,312.340790
	C208.848679,309.723206 223.012711,313.042816 237.106857,310.344666
	C250.754654,307.731995 264.917389,310.983521 279.012604,308.351227
	C292.833038,305.770294 307.170837,309.041168 321.414154,306.319824
	C334.911896,303.740906 348.871674,306.449005 362.828369,304.492462
	C378.854767,302.245789 395.431458,304.666748 411.677002,302.083710
	C415.252319,301.515228 419.000427,302.128052 422.660004,301.978119
	C437.630646,301.364655 452.631287,301.049561 467.544250,299.747131
	C471.589142,299.393860 476.702820,296.893280 478.918091,293.705139
	C481.543396,289.926910 484.987244,285.517273 484.012146,279.969543
	C483.286682,275.842010 482.518280,271.713104 482.035858,267.553833
	C481.267456,260.928772 482.527832,254.349609 480.335907,247.538452
	C478.302277,241.219070 480.522217,234.058609 478.267761,227.147171
	C476.294128,221.096771 478.599030,214.368973 476.339203,207.707977
	C474.208069,201.426331 476.531372,194.259827 474.307800,187.312454
	C472.328308,181.127716 474.493591,174.177780 472.297882,167.402664
	C470.291779,161.212601 472.604614,154.274338 470.305542,147.484009
	C468.222382,141.331360 470.133362,134.404846 468.384155,127.577118
	C466.103729,118.676025 466.565765,109.072342 466.012970,98.916908
	C465.964630,94.979622 465.916321,91.042328 466.075958,86.173698
z"/>
<path fill="darkorange" opacity="0.750000" stroke="none"
	d="
M465.847717,99.770981
	C466.565765,109.072342 466.103729,118.676025 468.384155,127.577118
	C470.133362,134.404846 468.222382,141.331360 470.305542,147.484009
	C472.604614,154.274338 470.291779,161.212601 472.297882,167.402664
	C474.493591,174.177780 472.328308,181.127716 474.307800,187.312454
	C476.531372,194.259827 474.208069,201.426331 476.339203,207.707977
	C478.599030,214.368973 476.294128,221.096771 478.267761,227.147171
	C480.522217,234.058609 478.302277,241.219070 480.335907,247.538452
	C482.527832,254.349609 481.267456,260.928772 482.035858,267.553833
	C482.518280,271.713104 483.286682,275.842010 484.012146,279.969543
	C484.987244,285.517273 481.543396,289.926910 478.918091,293.705139
	C476.702820,296.893280 471.589142,299.393860 467.544250,299.747131
	C452.631287,301.049561 437.630646,301.364655 422.660004,301.978119
	C419.000427,302.128052 415.252319,301.515228 411.677002,302.083710
	C395.431458,304.666748 378.854767,302.245789 362.828369,304.492462
	C348.871674,306.449005 334.911896,303.740906 321.414154,306.319824
	C307.170837,309.041168 292.833038,305.770294 279.012604,308.351227
	C264.917389,310.983521 250.754654,307.731995 237.106857,310.344666
	C223.012711,313.042816 208.848679,309.723206 195.200104,312.340790
	C180.942032,315.075256 166.604584,311.705444 152.797119,314.356323
	C139.026337,317.000153 125.226173,313.816925 111.880020,316.308685
	C97.315376,319.027924 82.652481,315.872253 68.497040,318.443726
	C59.516029,320.075165 50.807465,319.495178 41.999561,319.793121
	C39.250240,319.886108 36.481258,317.345825 33.609550,316.325348
	C28.545858,314.525879 26.075413,310.048523 24.788685,305.780212
	C23.411608,301.212189 22.754177,295.405060 24.456123,291.228119
	C26.051256,287.313324 25.641880,283.812103 25.954252,280.138580
	C26.758528,270.680237 26.115877,260.890381 28.429630,251.841064
	C30.011749,245.653244 28.555349,239.580231 30.179136,233.871536
	C32.260483,226.554245 30.425932,218.826981 32.428604,212.034927
	C34.358047,205.491257 32.296440,198.988983 34.235455,193.074310
	C36.545219,186.028717 34.293434,178.660095 36.365555,172.202240
	C38.507484,165.526794 36.274254,158.807190 38.265354,152.760849
	C40.541260,145.849640 38.295372,138.687103 40.334755,132.369476
	C42.533566,125.557945 40.322754,118.660950 42.305202,112.447029
	C44.097481,106.829201 42.960762,101.289795 44.178211,95.977707
	C45.604759,89.753242 49.838543,84.919891 55.666897,82.116371
	C58.330276,80.835236 61.548119,80.706795 64.937401,80.562088
	C65.261261,83.399124 65.327385,85.751183 65.026955,88.055443
	C64.488823,92.182884 66.085350,93.596985 70.272301,93.637688
	C81.248283,93.744408 92.219925,94.288971 103.193535,94.651939
	C123.320152,95.317665 143.446091,96.005569 163.573853,96.634796
	C195.349396,97.628159 227.126434,98.573723 258.902405,99.553459
	C275.203369,100.056053 291.503967,100.572395 307.803741,101.111282
	C343.226379,102.282394 378.647247,103.509132 414.071289,104.635330
	C427.883759,105.074463 441.714691,105.066635 455.512848,105.752129
	C460.676331,106.008652 465.034576,106.360229 465.847717,99.770981
z"/>
<path fill="#356700" opacity="1.000000" stroke="none"
	d="
M66.208191,79.307930
	C66.141327,62.657082 65.859772,46.002617 66.140305,29.357626
	C66.222939,24.454872 67.896072,19.578926 68.920349,14.276324
	C69.486099,14.215001 70.442467,14.004922 71.394348,14.023560
	C104.497353,14.671687 137.710403,13.938236 170.661285,16.532412
	C190.538589,18.097324 210.417007,15.765024 230.001633,18.297579
	C251.007935,21.013975 272.117645,17.738819 292.818176,20.438063
	C310.228973,22.708342 327.499115,20.423719 344.705414,22.117275
	C368.632843,24.472374 392.717865,22.428503 416.496918,24.542229
	C431.710510,25.894575 446.787445,25.056011 461.893585,25.973049
	C467.171417,26.293447 468.244781,27.853065 466.386444,32.785072
	C465.883423,34.120163 466.010773,35.728882 466.011078,37.211967
	C466.014191,53.532547 466.049438,69.853119 465.745972,86.332962
	C465.017670,84.371765 464.424377,82.266930 464.252869,80.128273
	C463.205658,67.068153 454.443146,59.219551 441.362152,59.838623
	C436.549072,60.066406 431.749176,60.562622 426.937134,60.823288
	C402.026367,62.172718 377.114166,63.496864 352.201324,64.807976
	C326.457123,66.162827 300.711060,67.481590 274.966858,68.836510
	C250.054016,70.147675 225.144196,71.517418 200.229980,72.801903
	C171.491211,74.283577 142.750366,75.726906 114.007851,77.134277
	C98.077347,77.914299 82.141579,78.586906 66.208191,79.307930
z"/>
<path fill="#FCCB03" opacity="1.000000" stroke="none"
	d="
M66.118217,79.481186
	C82.141579,78.586906 98.077347,77.914299 114.007851,77.134277
	C142.750366,75.726906 171.491211,74.283577 200.229980,72.801903
	C225.144196,71.517418 250.054016,70.147675 274.966858,68.836510
	C300.711060,67.481590 326.457123,66.162827 352.201324,64.807976
	C377.114166,63.496864 402.026367,62.172718 426.937134,60.823288
	C431.749176,60.562622 436.549072,60.066406 441.362152,59.838623
	C454.443146,59.219551 463.205658,67.068153 464.252869,80.128273
	C464.424377,82.266930 465.017670,84.371765 465.642029,86.798630
	C465.916321,91.042328 465.964630,94.979622 465.930359,99.343948
	C465.034576,106.360229 460.676331,106.008652 455.512848,105.752129
	C441.714691,105.066635 427.883759,105.074463 414.071289,104.635330
	C378.647247,103.509132 343.226379,102.282394 307.803741,101.111282
	C291.503967,100.572395 275.203369,100.056053 258.902405,99.553459
	C227.126434,98.573723 195.349396,97.628159 163.573853,96.634796
	C143.446091,96.005569 123.320152,95.317665 103.193535,94.651939
	C92.219925,94.288971 81.248283,93.744408 70.272301,93.637688
	C66.085350,93.596985 64.488823,92.182884 65.026955,88.055443
	C65.327385,85.751183 65.261261,83.399124 65.405373,80.617172
	C65.620758,79.970131 65.813370,79.799706 66.118217,79.481186
z"/>
</svg>