<svg version="1.1" id="Layer_1" xmlns="http://www.w3.org/2000/svg" xmlns:xlink="http://www.w3.org/1999/xlink" x="0px" y="0px" preserveAspectRatio="xMidYMid meet"
	 width="100%" viewBox="0 0 900 120" enable-background="new 0 0 900 120" xml:space="preserve">
<path opacity="0.000000" stroke="none"
	d="
M693.000000,121.000000
	C462.056488,121.000000 231.612961,121.000000 1.084721,121.000000
	C1.084721,81.066444 1.084721,41.132645 1.084721,1.099423
	C300.999969,1.099423 601.000000,1.099423 900.974487,1.099423
	C900.974487,41.053673 900.974487,81.026848 900.974487,121.000000
	C831.799255,121.000000 762.649658,121.000000 693.000000,121.000000
M539.497070,23.000000
	C516.432983,22.334803 493.370117,21.622175 470.304443,21.016697
	C442.908447,20.297546 415.510071,19.670523 388.112701,19.003628
	C360.715332,18.336733 333.318573,17.644953 305.920410,17.012335
	C289.306824,16.628727 272.690125,16.380075 256.076782,15.987710
	C245.625412,15.740874 235.179413,15.264509 224.727921,15.025749
	C207.281464,14.627192 189.831451,14.384222 172.385086,13.981715
	C162.599838,13.755960 152.820175,13.299183 143.035873,13.020127
	C118.638748,12.324306 94.241890,11.607550 69.841774,11.033382
	C61.015179,10.825682 52.158184,11.374078 43.355530,10.870353
	C37.345100,10.526411 32.580921,12.389159 27.741909,15.634945
	C22.540827,19.123587 18.410423,27.839075 20.497053,34.118877
	C23.494888,43.140980 25.982872,52.335079 29.077320,61.321873
	C33.504910,74.180328 38.063446,87.003525 42.992298,99.675995
	C46.120300,107.718353 52.409412,111.078156 61.196377,111.075012
	C320.142120,110.982437 579.087891,110.975456 838.033630,111.119362
	C845.726257,111.123642 850.745850,107.724785 853.988953,101.658028
	C862.244263,86.215317 870.110107,70.562195 877.981018,54.917412
	C880.649719,49.612946 879.536072,38.860687 875.726624,36.466110
	C871.930237,34.079720 867.513184,31.447809 863.253601,31.236746
	C840.212036,30.095047 817.135864,29.631771 794.069580,29.014046
	C778.956482,28.609310 763.839905,28.332857 748.724670,28.010376
	C732.610046,27.666573 716.494202,27.372025 700.380554,26.987669
	C689.263123,26.722483 678.148865,26.327026 667.032410,26.015532
	C654.417358,25.662046 641.802002,25.312153 629.185669,25.006552
	C614.404602,24.648514 599.622192,24.342455 584.840454,24.009121
	C570.058594,23.675785 555.276917,23.336613 539.497070,23.000000
z"/>
<path fill="#99CC00" opacity="1.000000" stroke="none"
	d="
M539.996094,23.000000
	C555.276917,23.336613 570.058594,23.675785 584.840454,24.009121
	C599.622192,24.342455 614.404602,24.648514 629.185669,25.006552
	C641.802002,25.312153 654.417358,25.662046 667.032410,26.015532
	C678.148865,26.327026 689.263123,26.722483 700.380554,26.987669
	C716.494202,27.372025 732.610046,27.666573 748.724670,28.010376
	C763.839905,28.332857 778.956482,28.609310 794.069580,29.014046
	C817.135864,29.631771 840.212036,30.095047 863.253601,31.236746
	C867.513184,31.447809 871.930237,34.079720 875.726624,36.466110
	C879.536072,38.860687 880.649719,49.612946 877.981018,54.917412
	C870.110107,70.562195 862.244263,86.215317 853.988953,101.658028
	C850.745850,107.724785 845.726257,111.123642 838.033630,111.119362
	C579.087891,110.975456 320.142120,110.982437 61.196377,111.075012
	C52.409412,111.078156 46.120300,107.718353 42.992298,99.675995
	C38.063446,87.003525 33.504910,74.180328 29.077320,61.321873
	C25.982872,52.335079 23.494888,43.140980 20.497053,34.118877
	C18.410423,27.839075 22.540827,19.123587 27.741909,15.634945
	C32.580921,12.389159 37.345100,10.526411 43.355530,10.870353
	C52.158184,11.374078 61.015179,10.825682 69.841774,11.033382
	C94.241890,11.607550 118.638748,12.324306 143.035873,13.020127
	C152.820175,13.299183 162.599838,13.755960 172.385086,13.981715
	C189.831451,14.384222 207.281464,14.627192 224.727921,15.025749
	C235.179413,15.264509 245.625412,15.740874 256.076782,15.987710
	C272.690125,16.380075 289.306824,16.628727 305.920410,17.012335
	C333.318573,17.644953 360.715332,18.336733 388.112701,19.003628
	C415.510071,19.670523 442.908447,20.297546 470.304443,21.016697
	C493.370117,21.622175 516.432983,22.334803 539.996094,23.000000
z"/>
</svg>