<svg version="1.1" id="Layer_1" xmlns="http://www.w3.org/2000/svg" xmlns:xlink="http://www.w3.org/1999/xlink" x="0px" y="0px"
	 width="100%" viewBox="0 0 399 50" enable-background="new 0 0 399 50" xml:space="preserve">
<path fill="#FFE1B3" opacity="1.000000" stroke="none" 
	d="
M400.000000,4.999999 
	C400.000000,8.692909 400.000000,12.385818 399.718628,16.844948 
	C398.979675,25.727398 398.388153,33.838959 398.105011,41.961269 
	C397.858978,49.020233 398.013092,49.030998 391.065033,49.029724 
	C264.801453,49.006618 138.537888,48.982159 12.274304,48.957310 
	C11.108326,48.957081 9.702835,49.358540 8.830381,48.849922 
	C7.384562,48.007057 5.410648,46.716820 5.191962,45.366776 
	C4.425034,40.632179 4.489898,35.769981 3.908477,30.996483 
	C3.094302,24.312069 1.983757,17.663757 1.000000,11.000000 
	C1.000000,7.677192 1.000000,4.354383 1.000000,1.000000 
	C43.687557,1.000000 86.375122,1.000000 129.827484,1.295769 
	C147.532623,2.023895 164.470718,2.665376 181.413742,2.847507 
	C224.019577,3.305503 266.627289,3.617273 309.234955,3.868168 
	C337.379181,4.033895 365.524719,3.972466 393.669373,4.084853 
	C395.780762,4.093284 397.889832,4.681371 400.000000,4.999999 
z"/>
<path fill="#FFFEFC" opacity="1.000000" stroke="none" 
	d="
M1.000000,11.468657 
	C1.983757,17.663757 3.094302,24.312069 3.908477,30.996483 
	C4.489898,35.769981 4.425034,40.632179 5.191962,45.366776 
	C5.410648,46.716820 7.384562,48.007057 8.830381,48.849922 
	C9.702835,49.358540 11.108326,48.957081 12.274304,48.957310 
	C138.537888,48.982159 264.801453,49.006618 391.065033,49.029724 
	C398.013092,49.030998 397.858978,49.020233 398.105011,41.961269 
	C398.388153,33.838959 398.979675,25.727398 399.718628,17.305584 
	C400.000000,28.322845 400.000000,39.645691 400.000000,50.950584 
	C267.000000,50.950584 133.999985,50.950584 1.000000,50.950584 
	C1.000000,37.913216 1.000000,24.925266 1.000000,11.468657 
z"/>
<path fill="#FFFEFB" opacity="1.000000" stroke="none" 
	d="
M400.000000,4.499999 
	C397.889832,4.681371 395.780762,4.093284 393.669373,4.084853 
	C365.524719,3.972466 337.379181,4.033895 309.234955,3.868168 
	C266.627289,3.617273 224.019577,3.305503 181.413742,2.847507 
	C164.470718,2.665376 147.532623,2.023895 130.296143,1.295769 
	C218.666672,1.000000 307.333344,0.998246 396.000000,1.011090 
	C398.016968,1.011382 400.928955,-0.016389 400.000000,4.499999 
z"/>
</svg>