<svg version="1.1" id="Layer_1" xmlns="http://www.w3.org/2000/svg" xmlns:xlink="http://www.w3.org/1999/xlink" x="0px" y="0px"
	 width="100%" viewBox="0 0 240 50" enable-background="new 0 0 240 50" xml:space="preserve">
<path fill="#5233FF" opacity="1.000000" stroke="none"
	d="
M206.000000,1.000000
	C210.689255,1.000000 215.378510,1.000000 220.326172,1.431071
	C221.052612,9.525432 221.520645,17.188723 221.943512,24.908005
	C221.898361,24.963997 221.973404,25.086729 221.508118,25.048510
	C154.704346,25.035658 88.365860,25.061026 22.064301,25.024776
	C22.101221,24.963160 22.010969,24.851385 22.006329,24.392689
	C22.001690,18.685877 22.001690,13.437763 22.001690,8.548662
	C44.207340,7.679932 65.677010,6.827459 87.147858,6.005728
	C96.726166,5.639148 106.305405,5.283514 115.886787,5.013796
	C129.456848,4.631797 143.028854,4.316368 156.600769,4.004628
	C172.001297,3.650886 187.402771,3.338476 202.803299,2.985080
	C203.780243,2.962662 204.786026,2.843610 205.704544,2.543496
	C205.945419,2.464793 205.909058,1.537557 206.000000,1.000000
z"/>
<path fill="#FFCC00" opacity="1.000000" stroke="none"
	d="
M241.000000,30.000000
	C241.000000,36.989113 241.000000,43.978226 241.000000,50.960342
	C160.999985,50.953350 80.999985,50.953350 1.000000,50.953350
	C1.000000,44.250408 1.000000,37.594116 1.265544,30.800552
	C4.779406,26.714615 8.636541,24.293167 14.076095,24.938231
	C16.680988,25.247137 19.363571,24.900902 22.010969,24.851385
	C22.010969,24.851385 22.101221,24.963160 22.056797,25.487793
	C22.008879,31.668226 22.200998,37.333225 21.935644,42.976715
	C21.747179,46.984924 23.321033,48.217815 27.171902,48.055050
	C38.610802,47.571568 50.061081,47.364403 61.505089,46.993069
	C81.069450,46.358253 100.632111,45.670841 120.196091,45.023846
	C140.923508,44.338364 161.651154,43.658928 182.379639,43.006741
	C194.157654,42.636166 205.936142,42.240185 217.717560,42.043056
	C220.982376,41.988430 222.156479,40.727222 222.032669,37.560993
	C221.870300,33.408482 221.980453,29.245314 221.973404,25.086729
	C221.973404,25.086729 221.898361,24.963997 222.400208,24.973770
	C227.500656,25.640144 232.141571,26.097731 236.674805,27.061703
	C238.253418,27.397390 239.565948,28.984447 241.000000,30.000000
z"/>
<path opacity="0.000000" stroke="none"
	d="
M22.006329,24.392689
	C19.363571,24.900902 16.680988,25.247137 14.076095,24.938231
	C8.636541,24.293167 4.779406,26.714615 1.265544,30.331638
	C1.000000,20.351439 1.000000,10.702876 1.000000,1.000000
	C69.020882,1.000000 137.041779,1.000000 205.531342,1.000000
	C205.909058,1.537557 205.945419,2.464793 205.704544,2.543496
	C204.786026,2.843610 203.780243,2.962662 202.803299,2.985080
	C187.402771,3.338476 172.001297,3.650886 156.600769,4.004628
	C143.028854,4.316368 129.456848,4.631797 115.886787,5.013796
	C106.305405,5.283514 96.726166,5.639148 87.147858,6.005728
	C65.677010,6.827459 44.207340,7.679932 22.001690,8.548662
	C22.001690,13.437763 22.001690,18.685877 22.006329,24.392689
z"/>
<path opacity="0.000000" stroke="none"
	d="
M241.000000,29.531342
	C239.565948,28.984447 238.253418,27.397390 236.674805,27.061703
	C232.141571,26.097731 227.500656,25.640144 222.445374,24.917778
	C221.520645,17.188723 221.052612,9.525432 220.792297,1.431071
	C227.606552,1.000000 234.213104,1.000000 241.000000,1.000000
	C241.000000,10.353621 241.000000,19.708153 241.000000,29.531342
z"/>
<path fill="#FF9900" opacity="1.000000" stroke="none"
	d="
M221.508118,25.048510
	C221.980453,29.245314 221.870300,33.408482 222.032669,37.560993
	C222.156479,40.727222 220.982376,41.988430 217.717560,42.043056
	C205.936142,42.240185 194.157654,42.636166 182.379639,43.006741
	C161.651154,43.658928 140.923508,44.338364 120.196091,45.023846
	C100.632111,45.670841 81.069450,46.358253 61.505089,46.993069
	C50.061081,47.364403 38.610802,47.571568 27.171902,48.055050
	C23.321033,48.217815 21.747179,46.984924 21.935644,42.976715
	C22.200998,37.333225 22.008879,31.668226 22.019876,25.549410
	C88.365860,25.061026 154.704346,25.035658 221.508118,25.048510
z"/>
</svg>